<?xml version="1.0" standalone="no"?>
<!DOCTYPE svg PUBLIC "-//W3C//DTD SVG 1.1//EN" "http://www.w3.org/Graphics/SVG/1.1/DTD/svg11.dtd" >
<svg xmlns="http://www.w3.org/2000/svg">
<metadata>Generated by IcoMoon</metadata>
<defs>
<font id="icons" horiz-adv-x="1024">
<font-face units-per-em="1024" ascent="960" descent="-64" />
<missing-glyph horiz-adv-x="1024" />
<glyph unicode="&#x20;" horiz-adv-x="512" d="" />
<glyph unicode="&#xe900;" glyph-name="toolwin-btn-mode" horiz-adv-x="768" d="M0 832v-768h768v768h-768zM64 128v640h640l-640-640z" />
<glyph unicode="&#xe901;" glyph-name="toolwin-btn-close" d="M983.072 743.232l-294.304-296.096 294.304-294.336c12.32-12.288 12.32-32.224 0-44.544l-133.632-133.6c-12.256-12.32-32.192-12.32-44.512 0l-293.824 293.824-292.064-293.824c-12.288-12.32-32.224-12.32-44.544 0l-133.6 133.6c-12.288 12.32-12.288 32.256 0 44.544l292.064 293.824-292.032 292.032c-12.288 12.288-12.288 32.224 0 44.544l133.6 133.6c12.288 12.32 32.224 12.32 44.544 0l291.52-291.52 294.368 296.096c12.32 12.32 32.256 12.32 44.512 0l133.632-133.6c12.256-12.32 12.256-32.256-0.032-44.544z" />
<glyph unicode="&#xe902;" glyph-name="module-content" d="M810 793.212q34 0 60-26t26-60v-256h-214l44 172-172-44v214h256zM726 195.212l-44 172h214v-256q0-34-26-60t-60-26h-256v214zM342 367.212l-44-172 172 44v-214h-256q-34 0-60 26t-26 60v256h214zM128 707.212q0 34 26 60t60 26h256v-214l-172 44 44-172h-214v256z" />
<glyph unicode="&#xe903;" glyph-name="module-search" d="M406 323.212q80 0 136 56t56 136-56 136-136 56-136-56-56-136 56-136 136-56zM662 323.212l212-212-64-64-212 212v34l-12 12q-76-66-180-66-116 0-197 80t-81 196 81 197 197 81 196-81 80-197q0-104-66-180l12-12h34z" />
<glyph unicode="&#xe904;" glyph-name="module-carousel" d="M768 665.212h170v-470h-170v470zM86 195.212v470h170v-470h-170zM298 111.212v640h428v-640h-428z" />
<glyph unicode="&#xe905;" glyph-name="module-panel" d="M896 665.212v128h-896v-640h128v-128h896v640h-128zM128 238.545h-42.667v469.333h725.333v-42.667h-682.667v-426.667zM938.667 110.545h-725.333v469.333h725.333v-469.333z" />
<glyph unicode="&#xe906;" glyph-name="module-image" d="M0 793.212v-768h1024v768h-1024zM938.667 110.545h-853.333v597.333h853.333v-597.333zM618.667 390.268c47.061 0 85.333 38.229 85.333 85.333s-38.272 85.333-85.333 85.333-85.333-38.229-85.333-85.333 38.272-85.333 85.333-85.333zM576 518.268h85.333v-85.333h-85.333v85.333zM896 665.212h-768v-512h768v512zM170.667 368.039l258.091-73.728-258.091-45.568v119.296zM853.333 195.879h-682.667v9.6l682.667 120.448v-130.048zM853.333 368.593l-341.333-63.659-341.333 105.771v211.84h682.667v-253.952z" />
<glyph unicode="&#xe907;" glyph-name="module-video" d="M768 751.212h170v-598q0-34-25-60t-59-26h-684q-34 0-59 26t-25 60v512q0 34 25 60t59 26h44l84-172h128l-84 172h84l86-172h128l-86 172h86l86-172h128z" />
<glyph unicode="&#xe908;" glyph-name="module-link" d="M725.333 878.545q50.333 0 97.167-19t83.833-56 56-83.833 19-97.167q0-50-19.167-97.167t-55.833-83.833l-128-128q-3.667-3.667-11-10.333-35.667-31.667-79.667-48.167t-90.333-16.5q-58.333 0-110.333 25-39 18.333-70.667 50t-50 70.667q25 25 60.333 25 12.333 0 25-3.667 21.667-35 56.667-56.667 41-25 89-25 33.333 0 64.667 12.667t56 37.333l128 128q24.667 24.667 37.333 56t12.667 64.667-12.667 64.667-37.333 56-56 37.333-64.667 12.667-64.667-12.667-56-37.333l-89.667-89.667q-42.667 11.667-88.333 11.667-7.333 0-20.667-0.667 6.667 7.333 10.333 11l128 128q36.667 36.667 83.833 55.833t97.167 19.167zM426.667 579.879q58.333 0 110.333-25 39-18.333 70.667-50t50-70.667q-25-25-60.333-25-12.333 0-25 3.667-21.667 35-56.667 56.667-41 25-89 25-33.333 0-64.667-12.667t-56-37.333l-128-128q-24.667-24.667-37.333-56t-12.667-64.667 12.667-64.667 37.333-56 56-37.333 64.667-12.667 64.667 12.667 56 37.333l89.667 89.667q42.667-11.667 88.333-11.667 7.333 0 20.667 0.667-6.667-7.333-10.333-11l-128-128q-37-37-83.833-56t-97.167-19q-50 0-97.167 19.167t-83.833 55.833q-37 37-56 83.833t-19 97.167 19 97.167 56 83.833l128 128q3.667 3.667 11 10.333 35.667 31.667 79.667 48.167t90.333 16.5z" />
<glyph unicode="&#xe909;" glyph-name="module-form" d="M298 707.212h598v-84h-598v84zM298 367.212v84h598v-84h-598zM298 111.212v84h598v-84h-598zM170 209.212q24 0 41-16t17-40-17-40-41-16-40 16-16 40 16 40 40 16zM170 729.212q26 0 45-18t19-46-19-46-45-18-45 18-19 46 19 46 45 18zM170 473.212q26 0 45-18t19-46-19-46-45-18-45 18-19 46 19 46 45 18z" />
<glyph unicode="&#xe90a;" glyph-name="module-timer" d="M554.667 748.412v44.8h21.333c11.776 0 21.333 9.557 21.333 21.333v85.333c0 11.776-9.557 21.333-21.333 21.333h-128c-11.776 0-21.333-9.557-21.333-21.333v-85.333c0-11.776 9.557-21.333 21.333-21.333h21.333v-44.971c-38.443-3.925-75.392-12.971-110.208-26.411l-44.672 43.136-77.952 77.909-150.101-150.101 96.896-96.896c-61.184-73.813-97.963-168.576-97.963-272 0-235.648 191.019-426.667 426.667-426.667s426.667 191.019 426.667 426.667c0 221.269-168.363 403.115-384 424.533zM469.333 878.545h85.333v-42.667h-85.333v42.667zM146.731 692.775l89.771 89.771 49.792-49.749-89.771-89.771-49.792 49.749zM512-17.455c-188.203 0-341.333 153.131-341.333 341.333s153.131 341.333 341.333 341.333 341.333-153.131 341.333-341.333-153.131-341.333-341.333-341.333zM478.165 517.628c-16.683 16.683-43.648 16.683-60.331 0s-16.683-43.648 0-60.331l83.797-83.84-112.128-156.672c-11.563-20.523-4.309-46.549 16.256-58.069 6.613-3.755 13.781-5.504 20.864-5.504 14.933 0 29.397 7.851 37.205 21.76l128 184.917c9.429 16.683 6.528 37.547-6.997 51.072l-106.667 106.667z" />
<glyph unicode="&#xe90b;" glyph-name="module-chat" d="M853.333 878.545h-725.333c-70.571 0-128-57.429-128-128v-512c0-70.571 85.333-85.333 128-85.333v-256l384 256h341.333c70.571 0 128 57.429 128 128v469.333c0 70.571-57.429 128-128 128zM896 281.212c0-23.509-19.157-42.667-42.667-42.667h-384l-256-213.333v213.333h-85.333c-23.509 0-42.667 19.157-42.667 42.667v469.333c0 23.509 19.157 42.667 42.667 42.667h725.333c23.509 0 42.667-19.157 42.667-42.667v-469.333zM170.667 665.212h512v-85.333h-512zM170.667 537.212h640v-42.667h-640zM170.667 451.879h640v-42.667h-640zM170.667 366.545h341.333v-42.667h-341.333z" />
<glyph unicode="&#xe90c;" glyph-name="module-html" d="M410 409.212h204l-102 270zM470 793.212h84l234-598h-96l-46 128h-268l-48-128h-96zM0 67.212h1024v-170h-1024v170z" />
<glyph unicode="&#xe90d;" glyph-name="module-frame" d="M854 153.212v384h-172v-384h172zM640 367.212v170h-470v-170h470zM640 153.212v170h-470v-170h470zM854 751.212q34 0 59-26t25-60v-512q0-34-25-60t-59-26h-684q-34 0-59 26t-25 60v512q0 34 25 60t59 26h684z" />
<glyph unicode="&#xe90e;" glyph-name="module-scroller" d="M896 793.212q34 0 60-26t26-60v-512q0-34-26-59t-60-25h-170v84h170v512h-768v-512h170v-84h-170q-34 0-60 25t-26 59v512q0 34 26 60t60 26h768zM256-16.788l256 256 256-256h-512z" />
<glyph unicode="&#xe90f;" glyph-name="module-event" d="M810 111.212v468h-596v-468h596zM810 793.212q34 0 60-26t26-60v-596q0-34-26-60t-60-26h-596q-36 0-61 26t-25 60v596q0 34 25 60t61 26h42v86h86v-86h340v86h86v-86h42zM706 449.212l-254-254-136 136 46 46 90-90 208 208z" />
<glyph unicode="&#xe910;" glyph-name="toolwin-toolbox" d="M889.056 688.593c30.688-74.016 16.064-162.368-44.128-222.56-66.272-66.272-166.432-76.64-244.288-32.704l-56.288-61.472 40.16-40.32 24 24c12.256 12.288 32.16 12.288 44.416 0l194.624-196.608c12.288-12.256 12.288-32.16 0-44.416l-88.832-88.832c-12.256-12.288-32.16-12.288-44.416 0l-194.624 196.608c-12.288 12.256-12.288 32.16 0 44.416l21.92 21.92-38.272 38.368-269.152-294.048c-24.544-24.544-64.32-24.544-88.832 0l-22.208 22.208c-24.544 24.544-24.544 64.32 0 88.832l306.624 256.8-203.648 204.192-64.32 0.032-74.432 119.68 59.904 60 122.4-74.912 0.8-62.976 206.016-206.816 59.936 50.176c-58.592 79.872-52.48 192.384 19.712 264.576 59.904 59.904 147.776 74.784 221.6 44.672l-131.968-130.144 111.072-111.072 132.224 130.4zM196.8 112.657c-12.256 12.256-32.128 12.256-44.416 0-12.288-12.288-12.288-32.16 0-44.448 12.288-12.256 32.16-12.256 44.416 0 12.288 12.32 12.288 32.192 0 44.448z" />
<glyph unicode="&#xe911;" glyph-name="toolwin-module" d="M682 707.212h214v-256h-214v256zM426 451.212v256h214v-256h-214zM682 153.212v256h214v-256h-214zM426 153.212v256h214v-256h-214zM170 153.212v256h214v-256h-214zM170 451.212v256h214v-256h-214z" />
<glyph unicode="&#xe912;" glyph-name="toolwin-event" d="M534.048 377.585l169.952-395.040-128-64-148.672 405.696-235.328-213.696v832l640-512-297.952-52.96z" />
<glyph unicode="&#xe913;" glyph-name="toolwin-style" d="M0 46.545h576v-128h-576zM896 814.545h-302.56l-183.764-704h-132.288l183.762 704h-269.15v128h704zM929.774-81.455l-129.774 129.774-129.774-129.774-62.226 62.226 129.774 129.774-129.774 129.774 62.226 62.226 129.774-129.774 129.774 129.774 62.226-62.226-129.774-129.774 129.774-129.774z" />
<glyph unicode="&#xe914;" glyph-name="toolwin-info" d="M512-64c-282.764 0-512 229.236-512 512s229.236 512 512 512 512-229.236 512-512-229.236-512-512-512zM512 866.909c-231.377 0-418.909-187.532-418.909-418.909s187.532-418.909 418.909-418.909 418.909 187.532 418.909 418.909-187.532 418.909-418.909 418.909zM465.455 168.727c-46.545 0-46.545 46.545-46.545 46.545l46.545 232.727c0 0 0 46.545-46.545 46.545 0 0-46.545 0-46.545 46.545h139.636c0 0 46.545 0 46.545-46.545s-46.545-186.182-46.545-232.727 46.545-46.545 46.545-46.545h46.545c0 0 0-46.545-139.636-46.545zM558.545 634.182c-25.74 0-46.545 20.806-46.545 46.545s20.806 46.545 46.545 46.545 46.545-20.806 46.545-46.545-20.806-46.545-46.545-46.545z" />
<glyph unicode="&#xe915;" glyph-name="toolwin-preview" d="M512 537.212q52 0 90-38t38-90-38-90-90-38-90 38-38 90 38 90 90 38zM512 195.212q88 0 151 63t63 151-63 151-151 63-151-63-63-151 63-151 151-63zM512 729.212q158 0 286-88t184-232q-56-144-184-232t-286-88-286 88-184 232q56 144 184 232t286 88z" />
<glyph unicode="&#xe916;" glyph-name="toolwin-tree-expand" d="M512 878.545q95.667 0 182.5-37.167t149.667-100 100-149.667 37.167-182.5-37.167-182.5-100-149.667-149.667-100-182.5-37.167-182.5 37.167-149.667 100-100 149.667-37.167 182.5 37.167 182.5 100 149.667 149.667 100 182.5 37.167zM512 793.212q-78 0-149.167-30.5t-122.5-81.833-81.833-122.5-30.5-149.167 30.5-149.167 81.833-122.5 122.5-81.833 149.167-30.5 149.167 30.5 122.5 81.833 81.833 122.5 30.5 149.167-30.5 149.167-81.833 122.5-122.5 81.833-149.167 30.5zM512 622.545q17.667 0 30.167-12.5t12.5-30.167v-128h128q17.667 0 30.167-12.5t12.5-30.167-12.5-30.167-30.167-12.5h-128v-128q0-17.667-12.5-30.167t-30.167-12.5-30.167 12.5-12.5 30.167v128h-128q-17.667 0-30.167 12.5t-12.5 30.167 12.5 30.167 30.167 12.5h128v128q0 17.667 12.5 30.167t30.167 12.5z" />
<glyph unicode="&#xe917;" glyph-name="toolwin-tree-collapse" d="M512 878.545q95.667 0 182.5-37.167t149.667-100 100-149.667 37.167-182.5-37.167-182.5-100-149.667-149.667-100-182.5-37.167-182.5 37.167-149.667 100-100 149.667-37.167 182.5 37.167 182.5 100 149.667 149.667 100 182.5 37.167zM512 793.212q-78 0-149.167-30.5t-122.5-81.833-81.833-122.5-30.5-149.167 30.5-149.167 81.833-122.5 122.5-81.833 149.167-30.5 149.167 30.5 122.5 81.833 81.833 122.5 30.5 149.167-30.5 149.167-81.833 122.5-122.5 81.833-149.167 30.5zM341.333 451.879h341.333q17.667 0 30.167-12.5t12.5-30.167-12.5-30.167-30.167-12.5h-341.333q-17.667 0-30.167 12.5t-12.5 30.167 12.5 30.167 30.167 12.5z" />
<glyph unicode="&#xe918;" glyph-name="module-visibility" d="M506 537.212h6q52 0 90-38t38-90v-8zM322 503.212q-24-48-24-94 0-88 63-151t151-63q46 0 94 24l-66 66q-16-4-28-4-52 0-90 38t-38 90q0 12 4 28zM86 739.212l54 54 756-756-54-54q-10 10-63 62t-81 80q-86-36-186-36-158 0-286 88t-184 232q50 124 160 212-24 24-67 68t-49 50zM512 623.212q-40 0-78-16l-92 92q78 30 170 30 158 0 285-88t183-232q-48-118-146-202l-124 124q16 38 16 78 0 88-63 151t-151 63z" />
<glyph unicode="&#xe919;" glyph-name="toolwin-tree" d="M976 174.545h-16v208c0 61.756-50.242 112-112 112h-272v128h16c26.4 0 48 21.6 48 48v160c0 26.4-21.6 48-48 48h-160c-26.4 0-48-21.6-48-48v-160c0-26.4 21.6-48 48-48h16v-128h-272c-61.756 0-112-50.244-112-112v-208h-16c-26.4 0-48-21.6-48-48v-160c0-26.4 21.6-48 48-48h160c26.4 0 48 21.6 48 48v160c0 26.4-21.6 48-48 48h-16v192h256v-192h-16c-26.4 0-48-21.6-48-48v-160c0-26.4 21.6-48 48-48h160c26.4 0 48 21.6 48 48v160c0 26.4-21.6 48-48 48h-16v192h256v-192h-16c-26.4 0-48-21.6-48-48v-160c0-26.4 21.6-48 48-48h160c26.4 0 48 21.6 48 48v160c0 26.4-21.6 48-48 48zM192-17.455h-128v128h128v-128zM576-17.455h-128v128h128v-128zM448 686.545v128h128v-128h-128zM960-17.455h-128v128h128v-128z" />
<glyph unicode="&#xe91a;" glyph-name="device-tablet" d="M736.032 832h-480c-35.36 0-64.032-28.672-64.032-64v-640c0-35.328 28.672-64 64.032-64h480c35.328 0 63.968 28.672 63.968 64v640c0 35.328-28.64 64-63.968 64zM496 96c-17.664 0-31.968 14.304-31.968 32s14.304 32 31.968 32c17.696 0 32.032-14.304 32.032-32s-14.336-32-32.032-32zM735.712 193.984h-480.832v573.184h480.832v-573.184z" />
<glyph unicode="&#xe91b;" glyph-name="device-mobile" d="M704 960h-384c-70.688 0-128-57.312-128-128v-768c0-70.688 57.312-128 128-128h384c70.688 0 128 57.312 128 128v768c0 70.688-57.312 128-128 128zM528 864h96c8.8 0 16-7.168 16-16s-7.2-16-16-16h-96c-8.832 0-16 7.168-16 16s7.168 16 16 16zM416 896c17.664 0 32-14.336 32-32s-14.336-32-32-32-32 14.336-32 32 14.336 32 32 32zM576 32c0-17.696-14.304-32-32-32h-64c-17.664 0-32 14.304-32 32v64c0 17.696 14.336 32 32 32h64c17.696 0 32-14.304 32-32v-64zM768 224c0-17.696-14.304-32-32-32h-448c-17.664 0-32 14.304-32 32v512c0 17.664 14.336 32 32 32h448c17.696 0 32-14.336 32-32v-512z" />
<glyph unicode="&#xe91c;" glyph-name="device-desktop-lg" d="M960 896c-32 0-864 0-896 0s-64-32-64-64 0-544 0-576 32-64 64-64 320 0 320 0-192-64-192-128c0-32 32-64 64-64s480 0 512 0 64 32 64 64c0 64-192 128-192 128s288 0 320 0 64 32 64 64 0 544 0 576-32 64-64 64zM960 256h-896v576h896v-576zM896 768h-192c-384-64-542-300-576-384v-64h768v448z" />
<glyph unicode="&#xe91d;" glyph-name="device-desktop-md" d="M864 800.128l-704-0.128c-17.696 0-32-14.176-32-31.872v-448c0-17.696 14.304-32 32-32h704c17.696 0 32 14.304 32 32v448c0 17.696-14.304 32-32 32zM864 320h-704v448.128h704v-448.128zM928 928h-832c-53.024 0-96-42.944-96-96v-640c0-52.928 42.816-95.808 95.68-95.936h320.32v-38.944l-199.744-25.952c-14.272-3.552-24.256-16.352-24.256-31.040 0-17.696 14.304-32 32-32h576c17.696 0 32 14.304 32 32 0 14.688-9.984 27.488-24.256 31.072l-199.744 25.92v38.944h320.32c52.864 0.128 95.68 43.008 95.68 95.936v640c0 53.056-43.008 96-96 96zM960 192c0-17.632-14.368-32-32-32h-832c-17.664 0-32 14.368-32 32v640c0 17.664 14.336 32 32 32h832c17.632 0 32-14.336 32-32v-640z" />
<glyph unicode="&#xe91e;" glyph-name="size-4by3" d="M896.48 33.792h-65.568v-33.792h-97.376v33.792h-445.056v-33.792h-97.376l0.032 33.792h-63.616c-35.136 0-63.584 28.48-63.584 63.584v605.984c0 35.104 28.48 63.584 63.584 63.584h222.528c0 0 14.016 19.456 39.648 37.184l-81.696 81.728 22.496 22.464 88.16-88.128c16.768 7.2 36.192 12.32 58.56 12.32 23.776 0 43.936-5.856 61.12-13.76l89.568 89.568 22.464-22.464-83.648-83.68c23.328-17.184 35.68-35.264 35.68-35.264h294.048c35.136 0 63.584-28.48 63.584-63.584v-605.984c0.032-35.104-28.448-63.552-63.552-63.552zM669.984 639.776c0 17.568-14.24 31.776-31.808 31.776h-445.056c-17.568 0-31.808-14.208-31.808-31.776v-478.848c0-17.568 14.24-31.776 31.808-31.776h445.024c17.568 0 31.808 14.208 31.808 31.776v478.848zM769.344 129.152h93.344v31.776h-93.344v-31.776zM769.344 192.736h93.344v31.744h-93.344v-31.744zM769.344 258.304h93.344v31.776h-93.344v-31.776zM769.344 321.888h93.344v31.808h-93.344v-31.808zM813.792 670.784c-26.304 0-47.68-21.344-47.68-47.68s21.376-47.68 47.68-47.68c26.336 0 47.68 21.344 47.68 47.68s-21.344 47.68-47.68 47.68zM813.792 544c-26.304 0-47.68-21.312-47.68-47.648s21.376-47.68 47.68-47.68c26.336 0 47.68 21.344 47.68 47.68s-21.344 47.648-47.68 47.648z" />
<glyph unicode="&#xe91f;" glyph-name="size-16by9" d="M544 161.984h-96v-49.984l-96-16v-32h286.016v30.016l-94.016 17.984v49.984zM864 832h-736c-35.36 0-64-28.64-64-64v-448c0-35.328 28.64-64 64-64h736c35.36 0 64 28.672 64 64v448c0 35.36-28.64 64-64 64zM492 304c-17.664 0-32 14.336-32 32 0 17.696 14.336 32 32 32 17.696 0 32-14.304 32-32 0-17.664-14.336-32-32-32zM864 416h-736v352h736v-352z" />
</font>
</defs>
</svg>
